<?xml version="1.0" standalone="no"?>
<!DOCTYPE svg PUBLIC "-//W3C//DTD SVG 20010904//EN"
 "http://www.w3.org/TR/2001/REC-SVG-20010904/DTD/svg10.dtd">
<svg version="1.0" xmlns="http://www.w3.org/2000/svg"
 width="679.000000pt" height="679.000000pt" viewBox="0 0 679.000000 679.000000"
 preserveAspectRatio="xMidYMid meet">
<metadata>
Created by potrace 1.14, written by Peter Selinger 2001-2017
</metadata>
<g transform="translate(0.000000,679.000000) scale(0.100000,-0.100000)"
fill="#000000" stroke="none">
<path d="M171 5122 c-53 -20 -119 -82 -146 -137 -20 -39 -20 -68 -22 -1575 -2
-1699 -6 -1588 62 -1667 18 -21 54 -49 81 -63 l49 -25 3187 -3 c2949 -2 3191
-1 3230 15 63 24 120 74 148 129 l25 49 0 1550 0 1550 -24 45 c-27 52 -75 100
-129 126 -36 18 -137 19 -3227 21 -2966 1 -3193 0 -3234 -15z m6443 -40 c58
-26 92 -61 119 -122 20 -44 20 -64 20 -1566 l1 -1521 -28 -57 c-32 -65 -80
-103 -154 -121 -35 -8 -868 -11 -3198 -10 l-3151 1 -59 29 c-67 35 -109 91
-121 165 -5 25 -8 718 -8 1541 l1 1496 28 57 c31 64 79 102 150 120 30 8 965
11 3197 10 l3154 0 49 -22z"/>
<path d="M3665 4996 c-45 -19 -94 -75 -106 -119 -7 -26 -10 -511 -11 -1482 0
-1414 0 -1443 20 -1486 25 -57 61 -89 115 -103 65 -16 2801 -13 2842 3 40 16
83 58 103 100 14 31 16 165 16 1476 1 1165 -2 1451 -12 1489 -16 57 -68 111
-119 125 -61 17 -2809 14 -2848 -3z m2872 -52 c15 -11 37 -38 48 -60 19 -38
19 -68 19 -1484 0 -1372 -1 -1447 -18 -1482 -10 -21 -34 -48 -54 -60 l-36 -22
-1402 0 -1402 0 -35 24 c-74 51 -68 -71 -68 1539 0 1255 2 1451 15 1481 16 40
40 64 76 79 16 6 516 9 1427 8 1399 -2 1402 -2 1430 -23z"/>
<path d="M4312 4693 c-118 -64 -147 -181 -68 -279 37 -47 66 -64 119 -70 85
-11 175 49 196 130 13 54 7 97 -21 149 -41 76 -152 109 -226 70z"/>
<path d="M4287 4313 c-1 -1 -27 -4 -57 -7 -178 -20 -239 -66 -265 -201 -6 -28
-10 -169 -15 -455 -2 -119 -9 -151 -39 -185 -10 -12 -18 -41 -20 -75 -2 -30
-7 -57 -11 -60 -5 -3 -42 -5 -83 -4 l-74 1 -1 -303 -1 -304 32 -1 c18 0 113
-2 212 -2 l180 -2 1 -30 c12 -179 25 -230 63 -250 57 -29 116 12 127 90 3 22
7 51 9 65 4 23 9 173 20 573 2 87 9 165 14 175 9 15 11 14 11 -8 1 -14 3 -34
5 -45 2 -11 7 -179 10 -374 8 -463 12 -486 97 -484 95 2 95 -4 103 908 3 341
8 626 11 634 4 11 7 12 16 3 8 -8 13 -81 14 -234 2 -302 10 -337 75 -338 54 0
74 56 86 250 23 337 -10 550 -91 598 -29 17 -76 32 -103 34 -5 0 -18 4 -30 9
-33 12 -287 32 -296 22z m-139 -628 c0 -305 0 -315 -19 -315 -18 0 -19 10 -18
315 1 293 2 315 18 315 17 0 18 -22 19 -315z m-92 -325 l1 -41 -55 3 -55 3 -3
38 -4 37 58 0 58 0 0 -40z"/>
<path d="M6105 4225 c-135 -47 -162 -249 -48 -357 82 -78 174 -70 236 20 53
76 56 128 16 222 -43 99 -121 143 -204 115z"/>
<path d="M6073 3731 c-26 -19 -47 -46 -63 -82 -25 -58 -38 -129 -24 -129 5 0
35 29 66 64 52 57 98 88 98 65 0 -5 -6 -9 -13 -9 -28 0 -185 -177 -275 -311
-37 -55 -80 -76 -244 -119 -194 -50 -218 -59 -230 -85 -37 -81 85 -106 347
-70 102 13 159 36 200 79 94 98 276 330 294 375 20 47 1 105 -39 123 -17 7
-30 16 -30 21 0 13 58 -22 74 -45 40 -57 9 -121 -159 -327 l-109 -134 1 -91 1
-91 -122 -22 c-66 -13 -132 -25 -146 -28 -14 -3 -35 -7 -48 -9 -41 -9 -87 -44
-109 -83 -24 -43 -41 -99 -145 -467 l-73 -258 33 -29 c41 -37 87 -39 123 -5
26 24 104 232 179 481 19 61 36 113 39 117 7 8 186 26 326 33 206 10 289 50
299 141 4 34 -11 93 -28 109 -19 19 -73 45 -80 38 -3 -4 -6 -1 -6 5 0 7 2 12
4 12 11 0 83 -34 96 -45 13 -12 15 -5 16 53 1 37 4 103 8 147 4 44 10 169 12
278 l5 198 -31 44 c-60 87 -170 112 -247 56z m62 -741 c-38 -4 -90 -11 -115
-15 -25 -4 -42 -4 -39 -1 12 12 94 24 159 24 l65 -1 -70 -7z"/>
<path d="M6399 3542 c0 -48 -2 -181 -4 -297 -2 -115 -4 -299 -4 -407 l-1 -198
-314 0 -314 0 1 -297 2 -298 40 0 40 0 0 235 c-1 129 2 237 6 240 4 3 126 5
271 5 l263 -1 2 -139 c1 -77 2 -185 3 -240 l0 -101 30 -2 c17 -1 32 3 35 10 6
18 11 1568 5 1569 -3 1 -17 3 -32 5 l-28 3 -1 -87z"/>
<path d="M4758 2986 c-3 -14 -2 -29 1 -34 3 -5 51 -10 106 -10 55 0 107 -1
115 -1 14 -1 16 -53 15 -446 0 -493 -6 -454 68 -453 l37 0 0 449 0 449 23 1
c12 0 147 1 300 1 l277 0 0 34 0 34 -469 0 -469 0 -4 -24z"/>
<path d="M384 3956 c-3 -8 -4 -31 -2 -52 l3 -39 85 0 85 -1 3 -252 2 -252 60
0 60 0 1 83 c0 45 0 157 0 250 0 92 3 167 7 168 4 1 43 2 87 3 l80 1 3 52 3
52 -236 0 c-189 0 -237 -3 -241 -13z"/>
<path d="M937 3963 c-2 -5 -3 -141 -3 -303 l1 -295 58 -3 57 -3 1 131 c1 71 3
135 4 140 1 6 3 17 4 25 0 8 12 26 26 40 33 32 84 34 111 4 17 -19 19 -39 21
-173 1 -83 2 -154 2 -158 1 -5 27 -8 59 -8 l57 0 -2 170 c-1 145 -4 176 -20
207 -44 84 -164 97 -245 25 -17 -14 -18 -9 -18 96 l0 112 -54 0 c-30 0 -56 -3
-59 -7z"/>
<path d="M1527 3789 c-126 -66 -150 -291 -41 -390 86 -78 236 -62 304 32 28
39 29 44 13 50 -34 12 -103 19 -103 11 0 -22 -43 -52 -74 -52 -38 0 -86 40
-86 71 0 11 -1 22 -2 27 -2 4 58 7 132 7 74 1 140 4 146 8 15 9 -1 111 -25
157 -10 19 -36 48 -59 64 -54 38 -147 45 -205 15z m146 -91 c14 -13 28 -35 31
-50 l6 -28 -85 0 c-84 0 -85 0 -85 25 0 34 45 75 81 75 15 0 39 -10 52 -22z"/>
<path d="M654 3072 c-163 -58 -245 -213 -231 -437 8 -113 41 -198 104 -261
163 -164 469 -119 571 83 60 120 61 325 2 442 -33 67 -103 135 -168 163 -66
30 -208 34 -278 10z m244 -155 c19 -13 44 -45 60 -77 24 -49 27 -66 27 -155 0
-83 -4 -109 -23 -150 -83 -182 -320 -157 -373 39 -15 54 -15 170 -1 222 40
142 191 201 310 121z"/>
<path d="M1361 3073 c-37 -19 -70 -58 -76 -89 -2 -10 -4 -43 -4 -71 l-1 -53
-39 0 c-38 0 -39 -1 -42 -37 -7 -72 -2 -83 41 -83 l39 0 0 -207 c0 -115 0
-217 0 -228 1 -18 7 -20 67 -18 36 1 68 4 71 7 3 2 6 103 7 223 l1 218 53 3
52 3 0 60 0 59 -55 0 -55 0 4 33 c2 17 4 40 5 49 1 20 34 32 82 29 36 -2 36
-1 46 49 6 28 7 53 2 56 -4 2 -43 7 -86 10 -63 4 -84 2 -112 -13z"/>
<path d="M1710 3075 c-54 -24 -73 -57 -78 -141 l-5 -74 -38 0 -39 0 0 -60 0
-60 40 0 40 0 0 -225 0 -225 23 -1 c48 -3 108 -1 113 3 2 3 5 105 5 226 l1
222 54 0 54 0 0 60 0 60 -56 0 -56 0 6 47 c7 59 18 67 92 63 28 -1 31 2 41 44
8 37 7 48 -4 58 -23 18 -152 21 -193 3z"/>
<path d="M1960 3009 c0 -38 3 -69 8 -70 4 0 35 -1 70 -2 49 -2 62 1 63 13 4
42 5 106 1 117 -2 7 -28 11 -73 11 l-69 -1 0 -68z"/>
<path d="M2357 2843 c-57 -29 -102 -87 -124 -162 -21 -75 -14 -199 17 -264 92
-195 396 -187 465 12 16 48 11 60 -30 62 -30 1 -79 10 -84 14 -2 2 -14 -18
-28 -45 -20 -41 -30 -50 -59 -56 -96 -18 -148 48 -146 183 2 104 42 163 108
163 49 0 82 -19 95 -55 l12 -32 64 12 c35 7 66 15 70 19 13 13 -46 110 -81
134 -47 32 -91 43 -167 41 -47 -1 -79 -9 -112 -26z"/>
<path d="M2945 2852 c-107 -51 -153 -141 -150 -292 4 -184 95 -283 261 -283
78 -1 157 36 196 91 40 57 40 74 -2 83 -94 20 -99 19 -115 -12 -26 -49 -79
-63 -134 -34 -30 15 -61 68 -61 104 0 21 4 21 181 21 l181 0 -6 68 c-12 125
-57 206 -139 249 -50 25 -163 28 -212 5z m163 -119 c15 -11 32 -38 39 -61 11
-40 11 -42 -10 -47 -12 -2 -61 -4 -109 -3 -96 2 -99 3 -74 62 29 70 97 91 154
49z"/>
<path d="M1960 2575 c0 -221 3 -285 13 -286 25 -2 120 2 126 5 4 3 6 130 6
283 l0 278 -73 3 -72 3 0 -286z"/>
</g>
</svg>
